<svg xmlns="http://www.w3.org/2000/svg" viewBox="0 0 897 900" role="img" aria-label="Robertson Real Estate R mark">
  <title>Robertson Real Estate R Mark</title>
  <path d="M 73.0 69.0 L 68.0 75.0 L 68.0 798.0 L 70.0 829.0 L 72.0 831.0 L 311.0 830.0 L 313.0 795.0 L 312.0 447.0 L 313.0 406.0 L 317.0 405.0 L 454.0 541.0 L 456.0 541.0 L 459.0 546.0 L 462.0 547.0 L 543.0 626.0 L 613.0 696.0 L 615.0 696.0 L 617.0 700.0 L 633.0 716.0 L 636.0 717.0 L 639.0 722.0 L 660.0 741.0 L 670.0 753.0 L 673.0 754.0 L 674.0 757.0 L 676.0 757.0 L 683.0 764.0 L 684.0 767.0 L 687.0 768.0 L 750.0 830.0 L 826.0 831.0 L 828.0 829.0 L 828.0 824.0 L 782.0 779.0 L 780.0 779.0 L 674.0 675.0 L 672.0 675.0 L 561.0 566.0 L 559.0 566.0 L 550.0 555.0 L 548.0 555.0 L 459.0 468.0 L 456.0 467.0 L 444.0 453.0 L 426.0 438.0 L 316.0 329.0 L 311.0 327.0 L 264.0 327.0 L 257.0 331.0 L 257.0 779.0 L 254.0 782.0 L 128.0 782.0 L 124.0 779.0 L 123.0 125.0 L 125.0 122.0 L 490.0 121.0 L 493.0 123.0 L 516.0 125.0 L 518.0 127.0 L 536.0 132.0 L 556.0 142.0 L 571.0 152.0 L 594.0 177.0 L 610.0 206.0 L 616.0 223.0 L 617.0 238.0 L 621.0 250.0 L 620.0 291.0 L 617.0 296.0 L 615.0 311.0 L 611.0 318.0 L 610.0 324.0 L 601.0 339.0 L 601.0 342.0 L 590.0 357.0 L 573.0 374.0 L 557.0 385.0 L 554.0 385.0 L 543.0 392.0 L 517.0 401.0 L 495.0 404.0 L 491.0 408.0 L 493.0 414.0 L 496.0 415.0 L 504.0 425.0 L 506.0 425.0 L 516.0 435.0 L 517.0 438.0 L 531.0 449.0 L 538.0 449.0 L 557.0 444.0 L 580.0 434.0 L 615.0 410.0 L 628.0 398.0 L 643.0 380.0 L 661.0 350.0 L 661.0 346.0 L 665.0 339.0 L 673.0 312.0 L 677.0 287.0 L 677.0 243.0 L 673.0 217.0 L 670.0 211.0 L 669.0 201.0 L 666.0 196.0 L 665.0 189.0 L 653.0 164.0 L 635.0 138.0 L 613.0 116.0 L 588.0 98.0 L 570.0 88.0 L 546.0 79.0 L 529.0 76.0 L 520.0 72.0 L 498.0 71.0 L 495.0 69.0 Z" fill="#B9945A" fill-rule="evenodd"/>
</svg>
